<svg xmlns="http://www.w3.org/2000/svg" width="460.64" height="35" viewBox="0 0 460.64 35"><rect class="svg__rect" x="0" y="0" width="139.65" height="35" fill="#31C4F3"/><rect class="svg__rect" x="137.65" y="0" width="322.99" height="35" fill="#5D9741"/><path class="svg__text" d="M13.78 19.42L13.78 19.42L15.27 19.42Q15.27 20.15 15.75 20.55Q16.23 20.95 17.12 20.95L17.12 20.95Q17.90 20.95 18.29 20.63Q18.68 20.32 18.68 19.80L18.68 19.80Q18.68 19.24 18.28 18.94Q17.89 18.63 16.85 18.32Q15.82 18.01 15.21 17.63L15.21 17.63Q14.05 16.90 14.05 15.72L14.05 15.72Q14.05 14.69 14.89 14.02Q15.73 13.35 17.07 13.35L17.07 13.35Q17.96 13.35 18.66 13.68Q19.36 14.01 19.75 14.61Q20.15 15.22 20.15 15.96L20.15 15.96L18.68 15.96Q18.68 15.29 18.26 14.91Q17.84 14.54 17.06 14.54L17.06 14.54Q16.33 14.54 15.93 14.85Q15.53 15.16 15.53 15.71L15.53 15.71Q15.53 16.18 15.96 16.50Q16.40 16.81 17.39 17.10Q18.39 17.40 18.99 17.78Q19.60 18.16 19.88 18.65Q20.16 19.13 20.16 19.79L20.16 19.79Q20.16 20.86 19.34 21.49Q18.52 22.12 17.12 22.12L17.12 22.12Q16.20 22.12 15.42 21.77Q14.64 21.43 14.21 20.83Q13.78 20.22 13.78 19.42ZM24.18 18.00L24.18 18.00L24.18 17.52Q24.18 16.28 24.62 15.32Q25.06 14.37 25.87 13.86Q26.67 13.35 27.72 13.35Q28.76 13.35 29.57 13.85Q30.37 14.35 30.81 15.29Q31.25 16.23 31.26 17.48L31.26 17.48L31.26 17.96Q31.26 19.21 30.82 20.16Q30.39 21.10 29.58 21.61Q28.78 22.12 27.73 22.12L27.73 22.12Q26.69 22.12 25.88 21.61Q25.07 21.10 24.63 20.17Q24.18 19.23 24.18 18.00ZM25.66 17.46L25.66 17.96Q25.66 19.36 26.21 20.13Q26.76 20.90 27.73 20.90L27.73 20.90Q28.71 20.90 29.24 20.15Q29.77 19.40 29.77 17.96L29.77 17.96L29.77 17.51Q29.77 16.09 29.24 15.34Q28.70 14.58 27.72 14.58L27.72 14.58Q26.76 14.58 26.21 15.33Q25.67 16.09 25.66 17.46L25.66 17.46ZM37.20 22L35.72 22L35.72 13.47L41.14 13.47L41.14 14.66L37.20 14.66L37.20 17.20L40.64 17.20L40.64 18.38L37.20 18.38L37.20 22ZM46.98 14.66L44.35 14.66L44.35 13.47L51.11 13.47L51.11 14.66L48.45 14.66L48.45 22L46.98 22L46.98 14.66ZM57.32 22L54.87 22L54.87 13.47L57.39 13.47Q58.52 13.47 59.40 13.97Q60.27 14.48 60.75 15.40Q61.23 16.33 61.23 17.52L61.23 17.52L61.23 17.95Q61.23 19.16 60.75 20.08Q60.27 21.00 59.37 21.50Q58.48 22 57.32 22L57.32 22ZM56.35 14.66L56.35 20.82L57.32 20.82Q58.48 20.82 59.11 20.09Q59.73 19.36 59.74 17.99L59.74 17.99L59.74 17.52Q59.74 16.13 59.14 15.40Q58.54 14.66 57.39 14.66L57.39 14.66L56.35 14.66ZM71.28 22L65.70 22L65.70 13.47L71.23 13.47L71.23 14.66L67.18 14.66L67.18 17.02L70.68 17.02L70.68 18.19L67.18 18.19L67.18 20.82L71.28 20.82L71.28 22ZM75.04 19.42L75.04 19.42L76.52 19.42Q76.52 20.15 77.00 20.55Q77.48 20.95 78.38 20.95L78.38 20.95Q79.15 20.95 79.54 20.63Q79.93 20.32 79.93 19.80L79.93 19.80Q79.93 19.24 79.53 18.94Q79.14 18.63 78.11 18.32Q77.08 18.01 76.47 17.63L76.47 17.63Q75.30 16.90 75.30 15.72L75.30 15.72Q75.30 14.69 76.14 14.02Q76.98 13.35 78.32 13.35L78.32 13.35Q79.22 13.35 79.91 13.68Q80.61 14.01 81.01 14.61Q81.41 15.22 81.41 15.96L81.41 15.96L79.93 15.96Q79.93 15.29 79.51 14.91Q79.09 14.54 78.31 14.54L78.31 14.54Q77.59 14.54 77.18 14.85Q76.78 15.16 76.78 15.71L76.78 15.71Q76.78 16.18 77.22 16.50Q77.65 16.81 78.65 17.10Q79.64 17.40 80.25 17.78Q80.85 18.16 81.13 18.65Q81.41 19.13 81.41 19.79L81.41 19.79Q81.41 20.86 80.60 21.49Q79.78 22.12 78.38 22.12L78.38 22.12Q77.45 22.12 76.68 21.77Q75.90 21.43 75.47 20.83Q75.04 20.22 75.04 19.42ZM87.18 22L85.70 22L85.70 13.47L87.18 13.47L87.18 17.47L88.00 16.46L90.50 13.47L92.29 13.47L89.12 17.25L92.47 22L90.72 22L88.15 18.31L87.18 19.34L87.18 22ZM103.01 22L101.47 22L104.69 13.47L106.02 13.47L109.25 22L107.70 22L107.01 20.01L103.70 20.01L103.01 22ZM105.35 15.28L104.12 18.82L106.59 18.82L105.35 15.28ZM114.69 22L113.21 22L113.21 13.47L116.47 13.47Q117.90 13.47 118.74 14.21Q119.58 14.96 119.58 16.18L119.58 16.18Q119.58 17.44 118.76 18.13Q117.93 18.83 116.45 18.83L116.45 18.83L114.69 18.83L114.69 22ZM114.69 14.66L114.69 17.64L116.47 17.64Q117.26 17.64 117.68 17.27Q118.09 16.90 118.09 16.19L118.09 16.19Q118.09 15.50 117.67 15.09Q117.25 14.68 116.51 14.66L116.51 14.66L114.69 14.66ZM125.43 22L123.95 22L123.95 13.47L125.43 13.47L125.43 22Z" fill="#FFFFFF"/><path class="svg__text" d="M155.81 22L151.84 22L151.84 13.60L155.81 13.60Q157.19 13.60 158.26 14.12Q159.33 14.63 159.92 15.58Q160.50 16.53 160.50 17.80L160.50 17.80Q160.50 19.07 159.92 20.02Q159.33 20.97 158.26 21.48Q157.19 22 155.81 22L155.81 22ZM154.22 15.50L154.22 20.10L155.72 20.10Q156.79 20.10 157.45 19.49Q158.10 18.88 158.10 17.80L158.10 17.80Q158.10 16.72 157.45 16.11Q156.79 15.50 155.72 15.50L155.72 15.50L154.22 15.50ZM164.15 20.93L164.15 20.93L165.45 19.40Q166.12 20.27 166.89 20.27L166.89 20.27Q166.90 20.27 166.90 20.27L166.90 20.27Q167.42 20.27 167.69 19.96Q167.96 19.65 167.96 19.05L167.96 19.05L167.96 15.44L165.06 15.44L165.06 13.60L170.31 13.60L170.31 18.91Q170.31 20.54 169.49 21.36Q168.67 22.17 167.07 22.17L167.07 22.17Q166.15 22.17 165.39 21.85Q164.63 21.53 164.15 20.93ZM176.82 22L174.39 22L178.10 13.60L180.44 13.60L184.16 22L181.69 22L181.03 20.37L177.48 20.37L176.82 22ZM179.25 15.93L178.17 18.61L180.33 18.61L179.25 15.93ZM190.64 22L188.31 22L188.31 13.60L190.27 13.60L193.98 18.07L193.98 13.60L196.30 13.60L196.30 22L194.35 22L190.64 17.52L190.64 22ZM201.04 17.80L201.04 17.80Q201.04 16.54 201.64 15.54Q202.23 14.55 203.30 13.99Q204.37 13.43 205.71 13.43L205.71 13.43Q206.89 13.43 207.83 13.83Q208.77 14.22 209.39 14.97L209.39 14.97L207.88 16.33Q207.03 15.40 205.86 15.40L205.86 15.40Q205.84 15.40 205.84 15.40L205.84 15.40Q204.76 15.40 204.10 16.06Q203.44 16.71 203.44 17.80L203.44 17.80Q203.44 18.50 203.74 19.04Q204.04 19.59 204.58 19.89Q205.12 20.20 205.81 20.20L205.81 20.20Q206.50 20.20 207.10 19.93L207.10 19.93L207.10 17.62L209.20 17.62L209.20 21.10Q208.47 21.61 207.54 21.89Q206.61 22.17 205.67 22.17L205.67 22.17Q204.35 22.17 203.29 21.61Q202.23 21.05 201.64 20.05Q201.04 19.06 201.04 17.80ZM213.76 17.80L213.76 17.80Q213.76 16.55 214.36 15.55Q214.97 14.56 216.03 14.00Q217.09 13.43 218.42 13.43L218.42 13.43Q219.75 13.43 220.82 14.00Q221.88 14.56 222.49 15.55Q223.09 16.55 223.09 17.80L223.09 17.80Q223.09 19.05 222.49 20.04Q221.88 21.04 220.82 21.60Q219.76 22.17 218.42 22.17L218.42 22.17Q217.09 22.17 216.03 21.60Q214.97 21.04 214.36 20.04Q213.76 19.05 213.76 17.80ZM216.16 17.80L216.16 17.80Q216.16 18.51 216.46 19.05Q216.76 19.60 217.28 19.90Q217.79 20.20 218.42 20.20L218.42 20.20Q219.06 20.20 219.58 19.90Q220.09 19.60 220.39 19.05Q220.69 18.51 220.69 17.80L220.69 17.80Q220.69 17.09 220.39 16.54Q220.09 16 219.58 15.70Q219.06 15.40 218.42 15.40L218.42 15.40Q217.79 15.40 217.27 15.70Q216.76 16 216.46 16.54Q216.16 17.09 216.16 17.80ZM236.21 22L233.79 22L237.50 13.60L239.84 13.60L243.55 22L241.09 22L240.43 20.37L236.88 20.37L236.21 22ZM238.65 15.93L237.57 18.61L239.73 18.61L238.65 15.93ZM250.09 22L247.71 22L247.71 13.60L251.55 13.60Q252.69 13.60 253.53 13.98Q254.37 14.35 254.83 15.06Q255.29 15.76 255.29 16.71L255.29 16.71Q255.29 17.66 254.83 18.35Q254.37 19.05 253.53 19.42Q252.69 19.80 251.55 19.80L251.55 19.80L250.09 19.80L250.09 22ZM250.09 15.47L250.09 17.93L251.41 17.93Q252.14 17.93 252.51 17.61Q252.88 17.29 252.88 16.71L252.88 16.71Q252.88 16.12 252.51 15.80Q252.14 15.47 251.41 15.47L251.41 15.47L250.09 15.47ZM262.42 22L260.04 22L260.04 13.60L262.42 13.60L262.42 22ZM269.38 15.48L266.80 15.48L266.80 13.60L274.32 13.60L274.32 15.48L271.76 15.48L271.76 22L269.38 22L269.38 15.48ZM285.44 22L278.69 22L278.69 13.60L285.29 13.60L285.29 15.44L281.05 15.44L281.05 16.85L284.78 16.85L284.78 18.63L281.05 18.63L281.05 20.17L285.44 20.17L285.44 22ZM289.66 21.24L289.66 21.24L290.44 19.49Q291.00 19.86 291.74 20.09Q292.49 20.32 293.21 20.32L293.21 20.32Q294.57 20.32 294.58 19.64L294.58 19.64Q294.58 19.28 294.19 19.11Q293.80 18.93 292.93 18.74L292.93 18.74Q291.98 18.53 291.35 18.30Q290.71 18.06 290.26 17.55Q289.80 17.03 289.80 16.16L289.80 16.16Q289.80 15.39 290.22 14.77Q290.64 14.15 291.48 13.79Q292.31 13.43 293.52 13.43L293.52 13.43Q294.34 13.43 295.15 13.62Q295.96 13.80 296.57 14.17L296.57 14.17L295.84 15.93Q294.64 15.28 293.51 15.28L293.51 15.28Q292.80 15.28 292.47 15.49Q292.15 15.70 292.15 16.04L292.15 16.04Q292.15 16.37 292.54 16.54Q292.92 16.71 293.77 16.89L293.77 16.89Q294.73 17.10 295.36 17.33Q295.99 17.56 296.45 18.07Q296.92 18.58 296.92 19.46L296.92 19.46Q296.92 20.21 296.50 20.83Q296.08 21.44 295.24 21.80Q294.40 22.17 293.20 22.17L293.20 22.17Q292.18 22.17 291.21 21.92Q290.25 21.67 289.66 21.24ZM303.29 15.48L300.70 15.48L300.70 13.60L308.22 13.60L308.22 15.48L305.66 15.48L305.66 22L303.29 22L303.29 15.48ZM312.17 17.80L312.17 17.80Q312.17 16.54 312.77 15.54Q313.36 14.55 314.42 13.99Q315.47 13.43 316.79 13.43L316.79 13.43Q317.94 13.43 318.86 13.84Q319.79 14.25 320.40 15.02L320.40 15.02L318.89 16.39Q318.07 15.40 316.91 15.40L316.91 15.40Q316.22 15.40 315.69 15.70Q315.16 16 314.86 16.54Q314.56 17.09 314.56 17.80L314.56 17.80Q314.56 18.51 314.86 19.05Q315.16 19.60 315.69 19.90Q316.22 20.20 316.91 20.20L316.91 20.20Q318.07 20.20 318.89 19.22L318.89 19.22L320.40 20.58Q319.79 21.35 318.87 21.76Q317.94 22.17 316.79 22.17L316.79 22.17Q315.47 22.17 314.42 21.61Q313.36 21.05 312.77 20.05Q312.17 19.06 312.17 17.80ZM326.35 22L323.93 22L327.64 13.60L329.98 13.60L333.70 22L331.23 22L330.57 20.37L327.02 20.37L326.35 22ZM328.79 15.93L327.71 18.61L329.87 18.61L328.79 15.93ZM337.26 21.24L337.26 21.24L338.04 19.49Q338.61 19.86 339.35 20.09Q340.09 20.32 340.81 20.32L340.81 20.32Q342.18 20.32 342.19 19.64L342.19 19.64Q342.19 19.28 341.80 19.11Q341.41 18.93 340.54 18.74L340.54 18.74Q339.59 18.53 338.95 18.30Q338.32 18.06 337.86 17.55Q337.41 17.03 337.41 16.16L337.41 16.16Q337.41 15.39 337.83 14.77Q338.25 14.15 339.08 13.79Q339.92 13.43 341.13 13.43L341.13 13.43Q341.95 13.43 342.76 13.62Q343.56 13.80 344.18 14.17L344.18 14.17L343.45 15.93Q342.24 15.28 341.11 15.28L341.11 15.28Q340.40 15.28 340.08 15.49Q339.76 15.70 339.76 16.04L339.76 16.04Q339.76 16.37 340.14 16.54Q340.53 16.71 341.38 16.89L341.38 16.89Q342.34 17.10 342.97 17.33Q343.60 17.56 344.06 18.07Q344.52 18.58 344.52 19.46L344.52 19.46Q344.52 20.21 344.10 20.83Q343.69 21.44 342.84 21.80Q342.00 22.17 340.80 22.17L340.80 22.17Q339.78 22.17 338.82 21.92Q337.86 21.67 337.26 21.24ZM355.84 22L349.10 22L349.10 13.60L355.69 13.60L355.69 15.44L351.46 15.44L351.46 16.85L355.19 16.85L355.19 18.63L351.46 18.63L351.46 20.17L355.84 20.17L355.84 22ZM370 22L367.62 22L367.62 13.60L371.46 13.60Q372.60 13.60 373.44 13.98Q374.28 14.35 374.74 15.06Q375.20 15.76 375.20 16.71L375.20 16.71Q375.20 17.66 374.74 18.35Q374.28 19.05 373.44 19.42Q372.60 19.80 371.46 19.80L371.46 19.80L370 19.80L370 22ZM370 15.47L370 17.93L371.32 17.93Q372.05 17.93 372.42 17.61Q372.79 17.29 372.79 16.71L372.79 16.71Q372.79 16.12 372.42 15.80Q372.05 15.47 371.32 15.47L371.32 15.47L370 15.47ZM381.37 22L378.94 22L382.65 13.60L384.99 13.60L388.71 22L386.24 22L385.58 20.37L382.03 20.37L381.37 22ZM383.80 15.93L382.72 18.61L384.88 18.61L383.80 15.93ZM392.28 21.24L392.28 21.24L393.06 19.49Q393.62 19.86 394.36 20.09Q395.11 20.32 395.83 20.32L395.83 20.32Q397.19 20.32 397.20 19.64L397.20 19.64Q397.20 19.28 396.81 19.11Q396.42 18.93 395.55 18.74L395.55 18.74Q394.60 18.53 393.97 18.30Q393.33 18.06 392.88 17.55Q392.42 17.03 392.42 16.16L392.42 16.16Q392.42 15.39 392.84 14.77Q393.26 14.15 394.10 13.79Q394.93 13.43 396.14 13.43L396.14 13.43Q396.96 13.43 397.77 13.62Q398.58 13.80 399.19 14.17L399.19 14.17L398.46 15.93Q397.26 15.28 396.13 15.28L396.13 15.28Q395.42 15.28 395.10 15.49Q394.77 15.70 394.77 16.04L394.77 16.04Q394.77 16.37 395.16 16.54Q395.54 16.71 396.39 16.89L396.39 16.89Q397.35 17.10 397.98 17.33Q398.61 17.56 399.07 18.07Q399.54 18.58 399.54 19.46L399.54 19.46Q399.54 20.21 399.12 20.83Q398.70 21.44 397.86 21.80Q397.02 22.17 395.82 22.17L395.82 22.17Q394.80 22.17 393.84 21.92Q392.88 21.67 392.28 21.24ZM403.53 21.24L403.53 21.24L404.31 19.49Q404.87 19.86 405.61 20.09Q406.36 20.32 407.08 20.32L407.08 20.32Q408.44 20.32 408.45 19.64L408.45 19.64Q408.45 19.28 408.06 19.11Q407.67 18.93 406.80 18.74L406.80 18.74Q405.85 18.53 405.22 18.30Q404.58 18.06 404.13 17.55Q403.67 17.03 403.67 16.16L403.67 16.16Q403.67 15.39 404.09 14.77Q404.51 14.15 405.35 13.79Q406.18 13.43 407.39 13.43L407.39 13.43Q408.21 13.43 409.02 13.62Q409.83 13.80 410.44 14.17L410.44 14.17L409.71 15.93Q408.51 15.28 407.38 15.28L407.38 15.28Q406.67 15.28 406.35 15.49Q406.02 15.70 406.02 16.04L406.02 16.04Q406.02 16.37 406.41 16.54Q406.79 16.71 407.64 16.89L407.64 16.89Q408.60 17.10 409.23 17.33Q409.86 17.56 410.32 18.07Q410.79 18.58 410.79 19.46L410.79 19.46Q410.79 20.21 410.37 20.83Q409.95 21.44 409.11 21.80Q408.27 22.17 407.07 22.17L407.07 22.17Q406.05 22.17 405.09 21.92Q404.13 21.67 403.53 21.24ZM421.91 18.03L421.91 18.03Q421.91 16.59 422.46 15.55Q423.02 14.51 424.03 13.97Q425.04 13.43 426.37 13.43L426.37 13.43Q427.09 13.43 427.74 13.59Q428.39 13.74 428.84 14.04L428.84 14.04L427.98 15.75Q427.37 15.31 426.43 15.31L426.43 15.31Q425.52 15.31 424.96 15.82Q424.39 16.32 424.30 17.27L424.30 17.27Q425.03 16.65 426.20 16.65L426.20 16.65Q426.99 16.65 427.65 16.98Q428.31 17.31 428.70 17.91Q429.09 18.52 429.09 19.30L429.09 19.30Q429.09 20.15 428.66 20.80Q428.22 21.46 427.47 21.82Q426.72 22.17 425.79 22.17L425.79 22.17Q423.99 22.17 422.95 21.10Q421.91 20.03 421.91 18.03ZM424.47 19.42L424.47 19.42Q424.47 19.89 424.79 20.18Q425.11 20.48 425.65 20.48L425.65 20.48Q426.16 20.48 426.47 20.19Q426.79 19.90 426.79 19.41L426.79 19.41Q426.79 18.93 426.47 18.64Q426.16 18.35 425.64 18.35L425.64 18.35Q425.13 18.35 424.80 18.65Q424.47 18.94 424.47 19.42ZM434.35 23.20L432.33 23.20L436.29 11.90L438.31 11.90L434.35 23.20ZM441.64 18.03L441.64 18.03Q441.64 16.59 442.20 15.55Q442.76 14.51 443.76 13.97Q444.77 13.43 446.10 13.43L446.10 13.43Q446.82 13.43 447.47 13.59Q448.12 13.74 448.57 14.04L448.57 14.04L447.71 15.75Q447.10 15.31 446.17 15.31L446.17 15.31Q445.25 15.31 444.69 15.82Q444.13 16.32 444.04 17.27L444.04 17.27Q444.76 16.65 445.94 16.65L445.94 16.65Q446.73 16.65 447.39 16.98Q448.05 17.31 448.44 17.91Q448.83 18.52 448.83 19.30L448.83 19.30Q448.83 20.15 448.39 20.80Q447.95 21.46 447.20 21.82Q446.45 22.17 445.53 22.17L445.53 22.17Q443.73 22.17 442.69 21.10Q441.64 20.03 441.64 18.03ZM444.21 19.42L444.21 19.42Q444.21 19.89 444.53 20.18Q444.84 20.48 445.39 20.48L445.39 20.48Q445.89 20.48 446.21 20.19Q446.52 19.90 446.52 19.41L446.52 19.41Q446.52 18.93 446.21 18.64Q445.89 18.35 445.38 18.35L445.38 18.35Q444.86 18.35 444.53 18.65Q444.21 18.94 444.21 19.42Z" fill="#FFFFFF" x="150.65"/></svg>