<svg xmlns="http://www.w3.org/2000/svg" width="277.13" height="35" viewBox="0 0 277.13 35"><rect class="svg__rect" x="0" y="0" width="178.10999999999999" height="35" fill="#31C4F3"/><rect class="svg__rect" x="176.10999999999999" y="0" width="101.01999999999998" height="35" fill="#389AD5"/><path class="svg__text" d="M13.78 19.42L13.78 19.42L15.27 19.42Q15.27 20.15 15.75 20.55Q16.23 20.95 17.12 20.95L17.12 20.95Q17.90 20.95 18.29 20.63Q18.68 20.32 18.68 19.80L18.68 19.80Q18.68 19.24 18.28 18.94Q17.89 18.63 16.85 18.32Q15.82 18.01 15.21 17.63L15.21 17.63Q14.05 16.90 14.05 15.72L14.05 15.72Q14.05 14.69 14.89 14.02Q15.73 13.35 17.07 13.35L17.07 13.35Q17.96 13.35 18.66 13.68Q19.36 14.01 19.75 14.61Q20.15 15.22 20.15 15.96L20.15 15.96L18.68 15.96Q18.68 15.29 18.26 14.91Q17.84 14.54 17.06 14.54L17.06 14.54Q16.33 14.54 15.93 14.85Q15.53 15.16 15.53 15.71L15.53 15.71Q15.53 16.18 15.96 16.50Q16.40 16.81 17.39 17.10Q18.39 17.40 18.99 17.78Q19.60 18.16 19.88 18.65Q20.16 19.13 20.16 19.79L20.16 19.79Q20.16 20.86 19.34 21.49Q18.52 22.12 17.12 22.12L17.12 22.12Q16.20 22.12 15.42 21.77Q14.64 21.43 14.21 20.83Q13.78 20.22 13.78 19.42ZM25.83 22L23.86 13.47L25.33 13.47L26.66 19.88L28.29 13.47L29.53 13.47L31.14 19.89L32.45 13.47L33.92 13.47L31.95 22L30.54 22L28.91 15.77L27.25 22L25.83 22ZM39.56 22L38.08 22L38.08 13.47L39.56 13.47L39.56 22ZM46.05 14.66L43.41 14.66L43.41 13.47L50.18 13.47L50.18 14.66L47.52 14.66L47.52 22L46.05 22L46.05 14.66ZM53.67 18.19L53.67 18.19L53.67 17.39Q53.67 16.19 54.10 15.27Q54.52 14.35 55.32 13.85Q56.12 13.35 57.17 13.35L57.17 13.35Q58.58 13.35 59.45 14.12Q60.31 14.89 60.45 16.29L60.45 16.29L58.97 16.29Q58.87 15.37 58.43 14.96Q58.00 14.55 57.17 14.55L57.17 14.55Q56.21 14.55 55.69 15.26Q55.17 15.96 55.16 17.33L55.16 17.33L55.16 18.09Q55.16 19.47 55.65 20.20Q56.15 20.92 57.10 20.92L57.10 20.92Q57.98 20.92 58.41 20.53Q58.85 20.14 58.97 19.22L58.97 19.22L60.45 19.22Q60.32 20.59 59.44 21.35Q58.56 22.12 57.10 22.12L57.10 22.12Q56.08 22.12 55.31 21.63Q54.53 21.15 54.11 20.26Q53.69 19.37 53.67 18.19ZM66.24 22L64.76 22L64.76 13.47L66.24 13.47L66.24 17.02L70.06 17.02L70.06 13.47L71.53 13.47L71.53 22L70.06 22L70.06 18.21L66.24 18.21L66.24 22ZM87.61 22L82.25 22L82.25 13.47L83.73 13.47L83.73 20.82L87.61 20.82L87.61 22ZM92.51 22L90.97 22L94.19 13.47L95.52 13.47L98.75 22L97.20 22L96.51 20.01L93.20 20.01L92.51 22ZM94.85 15.28L93.62 18.82L96.09 18.82L94.85 15.28ZM104.19 22L102.71 22L102.71 13.47L104.19 13.47L108.00 19.54L108.00 13.47L109.47 13.47L109.47 22L107.99 22L104.19 15.95L104.19 22ZM113.97 18.13L113.97 18.13L113.97 17.46Q113.97 15.53 114.89 14.44Q115.82 13.35 117.48 13.35L117.48 13.35Q118.90 13.35 119.74 14.05Q120.58 14.76 120.75 16.08L120.75 16.08L119.29 16.08Q119.05 14.54 117.51 14.54L117.51 14.54Q116.51 14.54 115.99 15.26Q115.47 15.98 115.46 17.37L115.46 17.37L115.46 18.02Q115.46 19.40 116.04 20.17Q116.62 20.93 117.66 20.93L117.66 20.93Q118.80 20.93 119.28 20.42L119.28 20.42L119.28 18.75L117.52 18.75L117.52 17.62L120.75 17.62L120.75 20.89Q120.29 21.50 119.47 21.81Q118.65 22.12 117.61 22.12L117.61 22.12Q116.53 22.12 115.71 21.63Q114.88 21.14 114.43 20.24Q113.98 19.33 113.97 18.13ZM125.23 19.16L125.23 19.16L125.23 13.47L126.71 13.47L126.71 19.18Q126.71 20.03 127.14 20.48Q127.58 20.93 128.42 20.93L128.42 20.93Q130.13 20.93 130.13 19.13L130.13 19.13L130.13 13.47L131.61 13.47L131.61 19.17Q131.61 20.53 130.74 21.32Q129.87 22.12 128.42 22.12L128.42 22.12Q126.96 22.12 126.10 21.33Q125.23 20.55 125.23 19.16ZM136.96 22L135.42 22L138.64 13.47L139.97 13.47L143.20 22L141.65 22L140.96 20.01L137.65 20.01L136.96 22ZM139.30 15.28L138.07 18.82L140.54 18.82L139.30 15.28ZM146.91 18.13L146.91 18.13L146.91 17.46Q146.91 15.53 147.83 14.44Q148.76 13.35 150.42 13.35L150.42 13.35Q151.84 13.35 152.68 14.05Q153.52 14.76 153.69 16.08L153.69 16.08L152.23 16.08Q151.99 14.54 150.45 14.54L150.45 14.54Q149.45 14.54 148.93 15.26Q148.41 15.98 148.40 17.37L148.40 17.37L148.40 18.02Q148.40 19.40 148.98 20.17Q149.56 20.93 150.60 20.93L150.60 20.93Q151.74 20.93 152.22 20.42L152.22 20.42L152.22 18.75L150.46 18.75L150.46 17.62L153.69 17.62L153.69 20.89Q153.23 21.50 152.41 21.81Q151.59 22.12 150.55 22.12L150.55 22.12Q149.47 22.12 148.65 21.63Q147.82 21.14 147.37 20.24Q146.93 19.33 146.91 18.13ZM163.89 22L158.31 22L158.31 13.47L163.85 13.47L163.85 14.66L159.79 14.66L159.79 17.02L163.30 17.02L163.30 18.19L159.79 18.19L159.79 20.82L163.89 20.82L163.89 22Z" fill="#FFFFFF"/><path class="svg__text" d="M197.04 22L190.30 22L190.30 13.60L196.89 13.60L196.89 15.44L192.65 15.44L192.65 16.85L196.39 16.85L196.39 18.63L192.65 18.63L192.65 20.17L197.04 20.17L197.04 22ZM204.18 22L201.85 22L201.85 13.60L203.80 13.60L207.51 18.07L207.51 13.60L209.84 13.60L209.84 22L207.89 22L204.18 17.52L204.18 22ZM214.57 17.80L214.57 17.80Q214.57 16.54 215.17 15.54Q215.77 14.55 216.84 13.99Q217.91 13.43 219.25 13.43L219.25 13.43Q220.43 13.43 221.36 13.83Q222.30 14.22 222.92 14.97L222.92 14.97L221.41 16.33Q220.57 15.40 219.39 15.40L219.39 15.40Q219.38 15.40 219.37 15.40L219.37 15.40Q218.29 15.40 217.63 16.06Q216.97 16.71 216.97 17.80L216.97 17.80Q216.97 18.50 217.27 19.04Q217.57 19.59 218.11 19.89Q218.65 20.20 219.35 20.20L219.35 20.20Q220.03 20.20 220.63 19.93L220.63 19.93L220.63 17.62L222.73 17.62L222.73 21.10Q222.01 21.61 221.07 21.89Q220.14 22.17 219.20 22.17L219.20 22.17Q217.88 22.17 216.83 21.61Q215.77 21.05 215.17 20.05Q214.57 19.06 214.57 17.80ZM234.11 22L227.72 22L227.72 13.60L230.10 13.60L230.10 20.11L234.11 20.11L234.11 22ZM240.91 22L238.53 22L238.53 13.60L240.91 13.60L240.91 22ZM245.49 21.24L245.49 21.24L246.27 19.49Q246.83 19.86 247.58 20.09Q248.32 20.32 249.04 20.32L249.04 20.32Q250.41 20.32 250.42 19.64L250.42 19.64Q250.42 19.28 250.03 19.11Q249.64 18.93 248.77 18.74L248.77 18.74Q247.82 18.53 247.18 18.30Q246.55 18.06 246.09 17.55Q245.64 17.03 245.64 16.16L245.64 16.16Q245.64 15.39 246.06 14.77Q246.48 14.15 247.31 13.79Q248.15 13.43 249.35 13.43L249.35 13.43Q250.18 13.43 250.99 13.62Q251.79 13.80 252.41 14.17L252.41 14.17L251.67 15.93Q250.47 15.28 249.34 15.28L249.34 15.28Q248.63 15.28 248.31 15.49Q247.99 15.70 247.99 16.04L247.99 16.04Q247.99 16.37 248.37 16.54Q248.76 16.71 249.61 16.89L249.61 16.89Q250.57 17.10 251.20 17.33Q251.83 17.56 252.29 18.07Q252.75 18.58 252.75 19.46L252.75 19.46Q252.75 20.21 252.33 20.83Q251.92 21.44 251.07 21.80Q250.23 22.17 249.03 22.17L249.03 22.17Q248.01 22.17 247.05 21.92Q246.09 21.67 245.49 21.24ZM259.71 22L257.33 22L257.33 13.60L259.71 13.60L259.71 16.76L262.95 16.76L262.95 13.60L265.32 13.60L265.32 22L262.95 22L262.95 18.72L259.71 18.72L259.71 22Z" fill="#FFFFFF" x="189.10999999999999"/></svg>