<svg xmlns="http://www.w3.org/2000/svg" width="270.68999999999994" height="35" viewBox="0 0 270.68999999999994 35"><rect class="svg__rect" x="0" y="0" width="178.10999999999999" height="35" fill="#31C4F3"/><rect class="svg__rect" x="176.10999999999999" y="0" width="94.57999999999998" height="35" fill="#389AD5"/><path class="svg__text" d="M13.78 19.42L13.78 19.42L15.27 19.42Q15.27 20.15 15.75 20.55Q16.23 20.95 17.12 20.95L17.12 20.95Q17.90 20.95 18.29 20.63Q18.68 20.32 18.68 19.80L18.68 19.80Q18.68 19.24 18.28 18.94Q17.89 18.63 16.85 18.32Q15.82 18.01 15.21 17.63L15.21 17.63Q14.05 16.90 14.05 15.72L14.05 15.72Q14.05 14.69 14.89 14.02Q15.73 13.35 17.07 13.35L17.07 13.35Q17.96 13.35 18.66 13.68Q19.36 14.01 19.75 14.61Q20.15 15.22 20.15 15.96L20.15 15.96L18.68 15.96Q18.68 15.29 18.26 14.91Q17.84 14.54 17.06 14.54L17.06 14.54Q16.33 14.54 15.93 14.85Q15.53 15.16 15.53 15.71L15.53 15.71Q15.53 16.18 15.96 16.50Q16.40 16.81 17.39 17.10Q18.39 17.40 18.99 17.78Q19.60 18.16 19.88 18.65Q20.16 19.13 20.16 19.79L20.16 19.79Q20.16 20.86 19.34 21.49Q18.52 22.12 17.12 22.12L17.12 22.12Q16.20 22.12 15.42 21.77Q14.64 21.43 14.21 20.83Q13.78 20.22 13.78 19.42ZM25.83 22L23.86 13.47L25.33 13.47L26.66 19.88L28.29 13.47L29.53 13.47L31.14 19.89L32.45 13.47L33.92 13.47L31.95 22L30.54 22L28.91 15.77L27.25 22L25.83 22ZM39.56 22L38.08 22L38.08 13.47L39.56 13.47L39.56 22ZM46.05 14.66L43.41 14.66L43.41 13.47L50.18 13.47L50.18 14.66L47.52 14.66L47.52 22L46.05 22L46.05 14.66ZM53.67 18.19L53.67 18.19L53.67 17.39Q53.67 16.19 54.10 15.27Q54.52 14.35 55.32 13.85Q56.12 13.35 57.17 13.35L57.17 13.35Q58.58 13.35 59.45 14.12Q60.31 14.89 60.45 16.29L60.45 16.29L58.97 16.29Q58.87 15.37 58.43 14.96Q58.00 14.55 57.17 14.55L57.17 14.55Q56.21 14.55 55.69 15.26Q55.17 15.96 55.16 17.33L55.16 17.33L55.16 18.09Q55.16 19.47 55.65 20.20Q56.15 20.92 57.10 20.92L57.10 20.92Q57.98 20.92 58.41 20.53Q58.85 20.14 58.97 19.22L58.97 19.22L60.45 19.22Q60.32 20.59 59.44 21.35Q58.56 22.12 57.10 22.12L57.10 22.12Q56.08 22.12 55.31 21.63Q54.53 21.15 54.11 20.26Q53.69 19.37 53.67 18.19ZM66.24 22L64.76 22L64.76 13.47L66.24 13.47L66.24 17.02L70.06 17.02L70.06 13.47L71.53 13.47L71.53 22L70.06 22L70.06 18.21L66.24 18.21L66.24 22ZM87.61 22L82.25 22L82.25 13.47L83.73 13.47L83.73 20.82L87.61 20.82L87.61 22ZM92.51 22L90.97 22L94.19 13.47L95.52 13.47L98.75 22L97.20 22L96.51 20.01L93.20 20.01L92.51 22ZM94.85 15.28L93.62 18.82L96.09 18.82L94.85 15.28ZM104.19 22L102.71 22L102.71 13.47L104.19 13.47L108.00 19.54L108.00 13.47L109.47 13.47L109.47 22L107.99 22L104.19 15.95L104.19 22ZM113.97 18.13L113.97 18.13L113.97 17.46Q113.97 15.53 114.89 14.44Q115.82 13.35 117.48 13.35L117.48 13.35Q118.90 13.35 119.74 14.05Q120.58 14.76 120.75 16.08L120.75 16.08L119.29 16.08Q119.05 14.54 117.51 14.54L117.51 14.54Q116.51 14.54 115.99 15.26Q115.47 15.98 115.46 17.37L115.46 17.37L115.46 18.02Q115.46 19.40 116.04 20.17Q116.62 20.93 117.66 20.93L117.66 20.93Q118.80 20.93 119.28 20.42L119.28 20.42L119.28 18.75L117.52 18.75L117.52 17.62L120.75 17.62L120.75 20.89Q120.29 21.50 119.47 21.81Q118.65 22.12 117.61 22.12L117.61 22.12Q116.53 22.12 115.71 21.63Q114.88 21.14 114.43 20.24Q113.98 19.33 113.97 18.13ZM125.23 19.16L125.23 19.16L125.23 13.47L126.71 13.47L126.71 19.18Q126.71 20.03 127.14 20.48Q127.58 20.93 128.42 20.93L128.42 20.93Q130.13 20.93 130.13 19.13L130.13 19.13L130.13 13.47L131.61 13.47L131.61 19.17Q131.61 20.53 130.74 21.32Q129.87 22.12 128.42 22.12L128.42 22.12Q126.96 22.12 126.10 21.33Q125.23 20.55 125.23 19.16ZM136.96 22L135.42 22L138.64 13.47L139.97 13.47L143.20 22L141.65 22L140.96 20.01L137.65 20.01L136.96 22ZM139.30 15.28L138.07 18.82L140.54 18.82L139.30 15.28ZM146.91 18.13L146.91 18.13L146.91 17.46Q146.91 15.53 147.83 14.44Q148.76 13.35 150.42 13.35L150.42 13.35Q151.84 13.35 152.68 14.05Q153.52 14.76 153.69 16.08L153.69 16.08L152.23 16.08Q151.99 14.54 150.45 14.54L150.45 14.54Q149.45 14.54 148.93 15.26Q148.41 15.98 148.40 17.37L148.40 17.37L148.40 18.02Q148.40 19.40 148.98 20.17Q149.56 20.93 150.60 20.93L150.60 20.93Q151.74 20.93 152.22 20.42L152.22 20.42L152.22 18.75L150.46 18.75L150.46 17.62L153.69 17.62L153.69 20.89Q153.23 21.50 152.41 21.81Q151.59 22.12 150.55 22.12L150.55 22.12Q149.47 22.12 148.65 21.63Q147.82 21.14 147.37 20.24Q146.93 19.33 146.91 18.13ZM163.89 22L158.31 22L158.31 13.47L163.85 13.47L163.85 14.66L159.79 14.66L159.79 17.02L163.30 17.02L163.30 18.19L159.79 18.19L159.79 20.82L163.89 20.82L163.89 22Z" fill="#FFFFFF"/><path class="svg__text" d="M192.68 22L190.30 22L190.30 13.60L196.89 13.60L196.89 15.44L192.68 15.44L192.68 17.28L196.39 17.28L196.39 19.12L192.68 19.12L192.68 22ZM203.86 22L201.48 22L201.48 13.60L205.33 13.60Q206.47 13.60 207.31 13.98Q208.15 14.35 208.60 15.06Q209.06 15.76 209.06 16.71L209.06 16.71Q209.06 17.62 208.63 18.30Q208.20 18.98 207.41 19.36L207.41 19.36L209.22 22L206.68 22L205.16 19.77L203.86 19.77L203.86 22ZM203.86 15.47L203.86 17.93L205.18 17.93Q205.91 17.93 206.29 17.61Q206.66 17.29 206.66 16.71L206.66 16.71Q206.66 16.12 206.29 15.79Q205.91 15.47 205.18 15.47L205.18 15.47L203.86 15.47ZM220.59 22L213.85 22L213.85 13.60L220.44 13.60L220.44 15.44L216.20 15.44L216.20 16.85L219.93 16.85L219.93 18.63L216.20 18.63L216.20 20.17L220.59 20.17L220.59 22ZM227.73 22L225.40 22L225.40 13.60L227.35 13.60L231.06 18.07L231.06 13.60L233.39 13.60L233.39 22L231.44 22L227.73 17.52L227.73 22ZM238.12 17.80L238.12 17.80Q238.12 16.54 238.72 15.54Q239.32 14.55 240.37 13.99Q241.42 13.43 242.74 13.43L242.74 13.43Q243.89 13.43 244.82 13.84Q245.74 14.25 246.35 15.02L246.35 15.02L244.84 16.39Q244.03 15.40 242.86 15.40L242.86 15.40Q242.18 15.40 241.64 15.70Q241.11 16 240.81 16.54Q240.52 17.09 240.52 17.80L240.52 17.80Q240.52 18.51 240.81 19.05Q241.11 19.60 241.64 19.90Q242.18 20.20 242.86 20.20L242.86 20.20Q244.03 20.20 244.84 19.22L244.84 19.22L246.35 20.58Q245.75 21.35 244.82 21.76Q243.89 22.17 242.74 22.17L242.74 22.17Q241.42 22.17 240.37 21.61Q239.32 21.05 238.72 20.05Q238.12 19.06 238.12 17.80ZM253.27 22L250.89 22L250.89 13.60L253.27 13.60L253.27 16.76L256.51 16.76L256.51 13.60L258.88 13.60L258.88 22L256.51 22L256.51 18.72L253.27 18.72L253.27 22Z" fill="#FFFFFF" x="189.10999999999999"/></svg>